<svg height="32" viewBox="0 0 32 32" width="32" xmlns="http://www.w3.org/2000/svg"><g fill="#4d4d4d" transform="matrix(.06108374 0 0 .06108374 -5.378967 -1.103355)"><path d="m422.03 324.51 45.824-26.461v-52.895l-45.824 26.504z"/><path d="m459.11 230-45.809-26.445-45.781 26.434 45.852 26.461z"/><path d="m404.53 275.33v-3.7617l-45.781-26.426v52.91l45.781 26.434z"/><path d="m232.14 224.95 45.781 26.426v-52.922l-45.781-26.422z"/><path d="m541.1 155.14c-.17578-.17578-.35156-.4375-.52344-.61328h-.003906c-.17578-.25391-.38281-.48828-.61328-.69922l-125.04-125.04c-.17578-.17578-.4375-.35156-.61328-.52344-.17578-.17578-.52344-.4375-.69922-.61328l-1.3125-1.4023h-219.8c-9.2812 0-18.184 3.6875-24.75 10.25-6.5625 6.5664-10.25 15.469-10.25 24.75v437.5c0 9.2812 3.6875 18.184 10.25 24.75 6.5664 6.5625 15.469 10.25 24.75 10.25h315c9.2812 0 18.184-3.6875 24.75-10.25 6.5625-6.5664 10.25-15.469 10.25-24.75v-342.3zm-123.64-99.051 95.203 95.203h-77.703c-4.6367-.015624-9.0781-1.8633-12.359-5.1406-3.2773-3.2812-5.125-7.7227-5.1406-12.359zm-202.82 95.762 72.059-41.598 72.047 41.598v63l54.547-31.5 72.055 41.598v83.203l-72.055 41.605-72.047-41.598v-63l-54.547 31.5-72.055-41.605z"/><path d="m332.5 156.91-45.797-26.445-45.789 26.426 45.852 26.461z"/><path d="m295.43 251.41 45.824-26.453v-52.902l-45.824 26.496z"/></g><path d="m-32 0h32v32h-32z" fill="none" stroke-width="3.09103" transform="scale(-1 1)"/></svg>