<svg height="32" viewBox="0 0 32 32" width="32" xmlns="http://www.w3.org/2000/svg"><g fill="#4d4d4d" stroke-width=".061084"><path d="m11.06477715 29.3896495c-.38082049.00596525-.75517832-.09878463-1.07757832-.30136276-.14173261-.08852256-.27201202-.19398975-.38797951-.31424532-.1064201-.11381734-.19422798-.2436203-.25984414-.38487645l.78883547-.44261892c.03913147.07969596.08637852.15485951.14125616.22453163.06084491.07348985.12980296.14030325.20520473.19876039.17466286.13219133.3906.19804571.60916985.18611606.18372768.00429498.36292296-.05583421.50680571-.16988611.14340631-.11619961.22285793-.29372729.2137931-.47793143.00811253-.13910601-.03770028-.27582975-.1283736-.38153517-.08780788-.09353143-.19661635-.16511547-.31734837-.20854601-.13099409-.04796051-.26819429-.07730759-.4073064-.08661675-.14531212-.0107373-.27582975-.01598684-.39131468-.01598684h-.15605064v-.83367094h.12192926c.2982597.02028164.59723409-.03006481.87233695-.14770049.15891547-.07659291.25721754-.24051724.25006463-.41684768.00071584-.07468709-.01765687-.14817695-.05344828-.2137931-.03245074-.05989078-.07730759-.11238187-.13147054-.15390049-.05607304-.04199507-.11906443-.07348985-.18611606-.09305498-.06919567-.02099754-.14125616-.03197367-.2137931-.03197367-.17728335-.0057266-.35194621.0436651-.50012315.14101793-.14459744.10092867-.27606798.21952276-.39131468.35289911l-.65426798-.59651941c.18921911-.21737261.41637123-.39847369.67027192-.53448276.25626463-.13409714.54164177-.2023399.83061675-.19899862.41231527-.02028164.819133.09949931 1.15460493.34001655.31305419.23240532.48532867.60893163.45669872.9976197-.028633.38893241-.25412059.7361202-.59795488.92004335.23454936.09186384.43188039.258653.5612069.47459015.12431764.21880197.18754542.46695468.18277478.718467.01598684.40706818-.1627332.79744828-.48103448 1.05180099-.34884315.27630621-.78547586.41804493-1.23028768.39871192z"/><path d="m15.15189046 29.32490073h-1.57241774v-4.77338916h1.55952906c.33500768-.00787431.66831724.04986938.98137143.16988611.26247074.10450818.49606719.27058266.68096158.48437576.18420414.21999921.3192603.47697852.3958532.75352906.08876079.32045143.1319531.65213005.12789714.9844867.00524935.34144591-.04008621.68193892-.13433537 1.01026404-.08088709.27845635-.22524631.53472099-.42161833.74827586-.42114187.4354599-1.01289064.66330837-1.61731429.62250443zm-.01169204-3.90172414h-.54092709v3.03005911h.52803842c.20091054.00739663.40086207-.0336437.58244571-.11977911.14770049-.07540177.27225025-.18921911.36029635-.32975448.09138739-.1486534.15366227-.31329241.18396591-.48532867.03579141-.19303685.05368711-.38893241.05344828-.58530443.00357908-.22333438-.02123637-.44619842-.07372808-.66306404-.04032504-.16869498-.11286443-.32784867-.2137931-.4688666-.21355488-.26270897-.54259468-.40325044-.87972808-.37580552z"/><path d="m21.41053085 26.07341304-.93012217 3.25173202h-.7759468l-.9172335-3.24531823v3.24531823h-.90862069v-4.77338916h1.36601576l.84655961 3.06585419.85114089-3.06585419h1.37890443v4.77192315h-.90862069z"/><path d="m20.40020573 18.71893029 2.79910148-1.61633695v-3.23102463l-2.79910148 1.61896355z"/><path d="m22.66519095 12.94590566-2.79818522-1.61535961-2.79647488 1.61468768 2.80081182 1.61633695z"/><path d="m19.33124021 15.71483176v-.22977872l-2.79647488-1.61419901v3.23194089l2.79647488 1.61468768z"/><path d="m8.80101361 12.63743275 2.79647487 1.61419901v-3.23267389l-2.79647487-1.61395468z"/><path d="m27.67344711 8.37317659c-.0107373-.0107373-.0214746-.02672414-.03197367-.03746144h-.00023859c-.0107373-.01550977-.02338347-.02982597-.03746144-.04271098l-7.63791134-7.63791132c-.0107373-.0107373-.02672414-.0214746-.03746144-.03197367-.0107373-.0107373-.03197367-.02672414-.04271098-.03746144l-.08017241-.08565773h-13.4262069c-.56693044 0-1.1107468.22524631-1.51182266.62610837-.40086206.40110029-.62610837.94490443-.62610837 1.51182265v26.72413794c0 .56693044.22524631 1.1107468.62610837 1.51182266.4011003.40086207.94490443.62610837 1.51182266.62610837h19.24137932c.56693044 0 1.1107468-.22524631 1.51182266-.62610837.40086207-.4011003.62610837-.94490443.62610837-1.51182266v-20.90896552zm-7.55239409-6.05040591 5.81535566 5.81535566h-4.74639015c-.28322699-.00095437-.55452433-.11381734-.75493399-.31400709-.20018975-.20042798-.31305418-.47173143-.31400709-.75493399zm-12.38900493 5.84950148 4.4016335-2.54096158 4.40090049 2.54096158v3.84827586l3.33193498-1.92413793 4.40138916 2.54096158v5.08235074l-4.40138916 2.54138916-4.4009005-2.54096158v-3.84827586l-3.33193497 1.92413793-4.40138916-2.54138916zm18.95795074 21.18995074c-.00095443.283227-.11381734.55476256-.31400709.75493399s-.47173143.31305419-.75493399.31400709h-19.24137931c-.283227-.00095443-.55476257-.11381734-.75493399-.31400709-.20017143-.20018976-.31305419-.47173143-.3140071-.75493399v-8.30616749h7.33860099l1.44310345 1.65164335c.10045222.11643783.2471998.18277478.40086207.18182187h12.19720197z"/><path d="m14.93137814 8.48129482-2.79745222-1.61535961-2.79696354 1.61419902 2.80081182 1.61633694z"/><path d="m12.66700376 14.25370861 2.79910148-1.61584828v-3.23145221l-2.79910148 1.61847488z"/></g><path d="m-32 0h32v32h-32z" fill="none" stroke-width="3.09103" transform="scale(-1 1)"/></svg>