<svg height="32" viewBox="0 0 32 32" width="32" xmlns="http://www.w3.org/2000/svg"><g fill="#4d4d4d" stroke-width=".061084"><path d="m12.01401853 28.95534408c-.14507389.14793872-.31997498.26318542-.51300571.33834897-.19613379.06705163-.40229143.09949931-.60940808.09568158-.30660985.00906727-.61083744-.05822014-.88498128-.19565734-.23741419-.12455587-.44166601-.30375114-.59651941-.52255311-.15843901-.22811114-.2727267-.48366109-.33667527-.7537734-.07182227-.29062424-.10761123-.58888394-.10689655-.88834089-.00119303-.32474562.03459844-.64852611.10689655-.96518424.06275133-.28871842.1794335-.56287448.34407251-.80813793.16153596-.23527015.37867034-.42710975.63233892-.55786562.29897438-.14722404.62922365-.21880197.96206897-.20854601.35481103-.00143162.70319606.09472867 1.00690443.2779799.16129773.09997576.30088631.23096985.41064768.38582936.13099409.19231606.23264355.40301222.30136276.62537537l-.9491803.25006463c-.07706936-.18706897-.19160138-.35624039-.3369135-.4970201-.15939192-.12431764-.35934345-.18491882-.5612069-.16988611-.17370995-.0085896-.34359606.05320944-.47124887.1715598-.12097635.11930266-.21403133.26366187-.2727267.42329202-.06490148.17179803-.10689655.35146975-.12503232.53448276-.0178957.16440079-.02744004.32951626-.02887184.49487606.00119309.16320966.01312323.32617498.03531373.48795527.02195228.17251271.06752808.34096946.13577084.50083783.06275133.15008276.16034483.283227.28441813.38845596.13433537.107373.30279212.16249498.47459015.15509773.24004079.0100214.47316079-.08256079.64137931-.25435882.14125616-.14412099.22739645-.33333399.2436203-.53448276h-.87807882v-.87331429h1.87930246v2.46937143l-.78785813-.00023865z"/><path d="m13.55332888 24.55181699h1.0197931v3.90172414h2.01503054v.87233695h-3.03488473z"/><path d="m18.31236336 29.32490073h-1.0197931v-3.90172414h-1.20567094v-.87166502h3.43785419v.87233695h-1.21239015z"/><path d="m21.03853085 26.40082191h1.54572414l.0064425.87233695-1.55.0064425v2.04606108l-1.02125911-.00023865v-4.77338916h3.08973793v.87233695h-2.07061675z"/><path d="m20.40020573 18.71893029 2.79910148-1.61633695v-3.23102463l-2.79910148 1.61896355z"/><path d="m22.66519095 12.94590566-2.79818522-1.61535961-2.79647488 1.61468768 2.80081182 1.61633695z"/><path d="m19.33124021 15.71483176v-.22977872l-2.79647488-1.61419901v3.23194089l2.79647488 1.61468768z"/><path d="m8.80101361 12.63743275 2.79647487 1.61419901v-3.23267389l-2.79647487-1.61395468z"/><path d="m27.67344711 8.37317659c-.0107373-.0107373-.0214746-.02672414-.03197367-.03746144h-.00023859c-.0107373-.01550977-.02338347-.02982597-.03746144-.04271098l-7.63791134-7.63791132c-.0107373-.0107373-.02672414-.0214746-.03746144-.03197367-.0107373-.0107373-.03197367-.02672414-.04271098-.03746144l-.08017241-.08565773h-13.4262069c-.56693044 0-1.1107468.22524631-1.51182266.62610837-.40086206.40110029-.62610837.94490443-.62610837 1.51182265v26.72413794c0 .56693044.22524631 1.1107468.62610837 1.51182266.4011003.40086207.94490443.62610837 1.51182266.62610837h19.24137932c.56693044 0 1.1107468-.22524631 1.51182266-.62610837.40086207-.4011003.62610837-.94490443.62610837-1.51182266v-20.90896552zm-7.55239409-6.05040591 5.81535566 5.81535566h-4.74639015c-.28322699-.00095437-.55452433-.11381734-.75493399-.31400709-.20018975-.20042798-.31305418-.47173143-.31400709-.75493399zm-12.38900493 5.84950148 4.4016335-2.54096158 4.40090049 2.54096158v3.84827586l3.33193498-1.92413793 4.40138916 2.54096158v5.08235074l-4.40138916 2.54138916-4.4009005-2.54096158v-3.84827586l-3.33193497 1.92413793-4.40138916-2.54138916zm18.95795074 21.18995074c-.00095443.283227-.11381734.55476256-.31400709.75493399s-.47173143.31305419-.75493399.31400709h-19.24137931c-.283227-.00095443-.55476257-.11381734-.75493399-.31400709-.20017143-.20018976-.31305419-.47173143-.3140071-.75493399v-8.30616749h7.33860099l1.44310345 1.65164335c.10045222.11643783.2471998.18277478.40086207.18182187h12.19720197z"/><path d="m14.93137814 8.48129482-2.79745222-1.61535961-2.79696354 1.61419902 2.80081182 1.61633694z"/><path d="m12.66700376 14.25370861 2.79910148-1.61584828v-3.23145221l-2.79910148 1.61847488z"/></g><path d="m-32 0h32v32h-32z" fill="none" stroke-width="3.09103" transform="scale(-1 1)"/></svg>