<svg height="32" viewBox="0 0 32 32" width="32" xmlns="http://www.w3.org/2000/svg"><g fill="#4d4d4d" stroke-width=".061084"><path d="m20.40020573 18.71893029 2.79910148-1.61633695v-3.23102463l-2.79910148 1.61896355z"/><path d="m22.66519095 12.94590566-2.79818522-1.61535961-2.79647488 1.61468768 2.80081182 1.61633695z"/><path d="m19.33124021 15.71483176v-.22977872l-2.79647488-1.61419901v3.23194089l2.79647488 1.61468768z"/><path d="m8.80101361 12.63743275 2.79647487 1.61419901v-3.23267389l-2.79647487-1.61395468z"/><path d="m27.67344711 8.37317659c-.0107373-.0107373-.0214746-.02672414-.03197367-.03746144h-.00023859c-.0107373-.01550977-.02338347-.02982597-.03746144-.04271098l-7.63791134-7.63791132c-.0107373-.0107373-.02672414-.0214746-.03746144-.03197367-.0107373-.0107373-.03197367-.02672414-.04271098-.03746144l-.08017241-.08565773h-13.4262069c-.56693044 0-1.1107468.22524631-1.51182266.62610837-.40086206.40110029-.62610837.94490443-.62610837 1.51182265v26.72413794c0 .56693044.22524631 1.1107468.62610837 1.51182266.4011003.40086207.94490443.62610837 1.51182266.62610837h19.24137932c.56693044 0 1.1107468-.22524631 1.51182266-.62610837.40086207-.4011003.62610837-.94490443.62610837-1.51182266v-20.90896552zm-7.55239409-6.05040591 5.81535566 5.81535566h-4.74639015c-.28322699-.00095437-.55452433-.11381734-.75493399-.31400709-.20018975-.20042798-.31305418-.47173143-.31400709-.75493399zm-12.38900493 5.84950148 4.4016335-2.54096158 4.40090049 2.54096158v3.84827586l3.33193498-1.92413793 4.40138916 2.54096158v5.08235074l-4.40138916 2.54138916-4.4009005-2.54096158v-3.84827586l-3.33193497 1.92413793-4.40138916-2.54138916zm18.95795074 21.18995074c-.00095443.283227-.11381734.55476256-.31400709.75493399s-.47173143.31305419-.75493399.31400709h-19.24137931c-.283227-.00095443-.55476257-.11381734-.75493399-.31400709-.20017143-.20018976-.31305419-.47173143-.3140071-.75493399v-8.30616749h7.33860099l1.44310345 1.65164335c.10045222.11643783.2471998.18277478.40086207.18182187h12.19720197z"/><path d="m14.93137814 8.48129482-2.79745222-1.61535961-2.79696354 1.61419902 2.80081182 1.61633694z"/><path d="m12.66700376 14.25370861 2.79910148-1.61584828v-3.23145221l-2.79910148 1.61847488z"/><path d="m16.59935538 29.32485557h-1.0197931v-3.90172414h-1.20567094v-.87166502h3.43785419v.87233695h-1.21239015z"/><path d="m12.2891511 29.38960433c-.35671685-.00214746-.70673892-.09711094-1.01551724-.27582975-.17275094-.09186384-.32689576-.21474601-.45550148-.36220828-.14220906-.17036867-.25697931-.36197005-.33977833-.56765123l.85254581-.37413793h-.00023859c.04867641.10522897.10450818.20711054.16750384.30470404.05631188.08780788.12550877.16678916.20568118.23407291.07921951.06585438.16988611.11692039.26724138.15055921.10999961.03770028.22572276.05583421.3421667.05344828.08828433.00023859.17633044-.00835137.26294719-.02553117.08041064-.0150321.15748-.044381.22763468-.08661675.06752808-.04008621.12288217-.0975935.16034483-.16678916.04104095-.08279901.06084491-.17466286.05726601-.26724138-.00477211-.16631271-.09735527-.31782483-.24338207-.39752079-.20281635-.13147054-.42018897-.23908788-.64760985-.32068966-.39823547-.13553261-.77283153-.33261931-1.11025813-.58387507-.26032059-.22619921-.4020532-.55977754-.3844-.90434483-.00620367-.36721714.15986837-.71608473.44906325-.9427665.31734837-.2550735.71559606-.38797951 1.12241379-.37413793.35767586-.00548801.70960985.09019626 1.01551724.27582975.15128.09162562.2858536.20878424.39704433.34622266.12908828.16440079.23503192.34574621.31496.53877695l-.94343842.28871842c-.06585438-.16702739-.16511547-.31878384-.29181537-.44572197-.13672374-.12026167-.31544256-.18134542-.4970201-.17013044-.07014857.00023865-.14006502.00787431-.20854601.02266757-.06728985.01360091-.13219133.03746144-.19231606.0703868-.12479409.06848099-.20067232.20091054-.19613379.34311961.00095443.0668134.02242934.13170877.06132197.18611606.05559598.07277517.12693813.1319531.20854601.17322739.22214325.12288217.45454857.22572276.69482759.30780709.35170798.11763507.68120591.29325084.97495764.51945005.30684808.23264355.4776932.60320197.45526325.98784631.02338347.41064768-.14197084.80984828-.44882502 1.08374778-.36292296.27153557-.81033695.40539448-1.26247882.37843212z"/><path d="m18.50150415 24.55079448h1.01912118v3.90172414h2.01386995v.87233695h-3.03293005z"/></g><path d="m-32 0h32v32h-32z" fill="none" stroke-width="3.09103" transform="scale(-1 1)"/></svg>