<svg height="32" viewBox="0 0 32 32" width="32" xmlns="http://www.w3.org/2000/svg"><g fill="#4d4d4d" transform="matrix(.06108374 0 0 .06108374 -5.378967 -1.103355)"><path d="m452.63662252 467.48h-11.945v30.625h-16.688v-78.109h28.762c3.7148-.03125 7.4219.39062 11.035 1.2617 3.1914.74609 6.1992 2.1406 8.8359 4.0938 2.5547 1.9375 4.5859 4.4844 5.9141 7.4023 1.5195 3.4922 2.25 7.2734 2.1445 11.078.42578 6.7188-2.3281 13.25-7.4375 17.641-5.957 4.3555-13.258 6.4844-20.621 6.0078zm-1.2852-33.18h-10.66v18.945h10.656c1.6055.003906 3.2109-.11719 4.7969-.35938 1.4062-.19922 2.7617-.65234 4.0078-1.3398 1.168-.64844 2.1367-1.6094 2.7969-2.7734.75781-1.4375 1.1211-3.0469 1.0508-4.6719.058594-1.5898-.19141-3.1758-.73438-4.6719-.43359-1.1172-1.1641-2.0938-2.1094-2.8242-2.9453-1.7773-6.3789-2.582-9.8086-2.3047z"/><path d="m422.03 324.51 45.824-26.461v-52.895l-45.824 26.504z"/><path d="m459.11 230-45.809-26.445-45.781 26.434 45.852 26.461z"/><path d="m404.53 275.33v-3.7617l-45.781-26.426v52.91l45.781 26.434z"/><path d="m232.14 224.95 45.781 26.426v-52.922l-45.781-26.422z"/><path d="m541.1 155.14c-.17578-.17578-.35156-.4375-.52344-.61328h-.003906c-.17578-.25391-.38281-.48828-.61328-.69922l-125.04-125.04c-.17578-.17578-.4375-.35156-.61328-.52344-.17578-.17578-.52344-.4375-.69922-.61328l-1.3125-1.4023h-219.8c-9.2812 0-18.184 3.6875-24.75 10.25-6.5625 6.5664-10.25 15.469-10.25 24.75v437.5c0 9.2812 3.6875 18.184 10.25 24.75 6.5664 6.5625 15.469 10.25 24.75 10.25h315c9.2812 0 18.184-3.6875 24.75-10.25 6.5625-6.5664 10.25-15.469 10.25-24.75v-342.3zm-123.64-99.051 95.203 95.203h-77.703c-4.6367-.015624-9.0781-1.8633-12.359-5.1406-3.2773-3.2812-5.125-7.7227-5.1406-12.359zm-202.82 95.762 72.059-41.598 72.047 41.598v63l54.547-31.5 72.055 41.598v83.203l-72.055 41.605-72.047-41.598v-63l-54.547 31.5-72.055-41.605zm310.36 346.9c-.015625 4.6367-1.8633 9.082-5.1406 12.359s-7.7227 5.125-12.359 5.1406h-315c-4.6367-.015625-9.082-1.8633-12.359-5.1406s-5.125-7.7227-5.1406-12.359v-135.98h120.14l23.625 27.039c1.6445 1.9062 4.0469 2.9922 6.5625 2.9766h199.68z"/><path d="m332.5 156.91-45.797-26.445-45.789 26.426 45.852 26.461z"/><path d="m295.43 251.41 45.824-26.453v-52.902l-45.824 26.496z"/><path d="m360.88359839 419.965436h52.395v14.281h-35.699v15.961h26.039v14.281l-26.039.10547v19.25l36.957-.003906v14.281h-53.652z"/><path d="m329.80640166 498.13926064h-16.695v-63.875h-19.738v-14.27h56.281v14.281h-19.848z"/><path d="m259.24418639 499.19926064c-5.8398-.035156-11.57-1.5898-16.625-4.5156-2.8281-1.5039-5.3516-3.5156-7.457-5.9297-2.3281-2.7891-4.207-5.9258-5.5625-9.293l13.957-6.125h-.003906c.79688 1.7227 1.7109 3.3906 2.7422 4.9883.92188 1.4375 2.0547 2.7305 3.3672 3.832 1.2969 1.0781 2.7812 1.9141 4.375 2.4648 1.8008.61719 3.6953.91406 5.6016.875 1.4453.003906 2.8867-.13672 4.3047-.41797 1.3164-.24609 2.5781-.72656 3.7266-1.418 1.1055-.65625 2.0117-1.5977 2.625-2.7305.67188-1.3555.99609-2.8594.9375-4.375-.078124-2.7227-1.5938-5.2031-3.9844-6.5078-3.3203-2.1523-6.8789-3.9141-10.602-5.25-6.5195-2.2188-12.652-5.4453-18.176-9.5586-4.2617-3.7031-6.582-9.1641-6.293-14.805-.10156-6.0117 2.6172-11.723 7.3516-15.434 5.1953-4.1758 11.715-6.3516 18.375-6.125 5.8555-.089844 11.617 1.4766 16.625 4.5156 2.4766 1.5 4.6797 3.418 6.5 5.668 2.1133 2.6914 3.8477 5.6602 5.1562 8.8203l-15.445 4.7266c-1.0781-2.7344-2.7031-5.2188-4.7773-7.2969-2.2383-1.9688-5.1641-2.9688-8.1367-2.7852-1.1484.003907-2.293.12891-3.4141.37109-1.1016.22266-2.1641.61328-3.1484 1.1523-2.043 1.1211-3.2852 3.2891-3.2109 5.6172.015625 1.0938.36719 2.1562 1.0039 3.0469.91016 1.1914 2.0781 2.1602 3.4141 2.8359 3.6367 2.0117 7.4414 3.6953 11.375 5.0391 5.7578 1.9258 11.152 4.8008 15.961 8.5039 5.0234 3.8086 7.8203 9.875 7.4531 16.172.38281 6.7227-2.3242 13.258-7.3477 17.742-5.9414 4.4453-13.266 6.6367-20.668 6.1953z"/></g><path d="m-611.929871 18.062996h523.870972v523.870972h-523.870972z" fill="none" stroke-width="50.6031" transform="matrix(-.06108374 0 0 .06108374 -5.378967 -1.103355)"/></svg>