<svg height="32" viewBox="0 0 32 32" width="32" xmlns="http://www.w3.org/2000/svg"><g fill="#4d4d4d" stroke-width=".061084"><path d="m7.82245203 28.77392536-.94777537-3.58103448h.76476847l.57719252 2.40993694.60893162-2.40993694h.76977734l-.9525399 3.58103448z"/><path d="m11.14662937 27.35861501h-.48795527l-.00023865 1.41543251h-.76476848v-3.58103448h1.43284138c.16320966-.00238605.32569852.02195228.48103448.07206049.13648552.044381.26151172.11715862.36721714.2137931.10355527.09711094.18372768.21618148.23479369.34860493.05822014.15342404.08685498.31687192.08375192.48103448.00477217.19565734-.05106234.38797951-.16034483.55046837-.11166719.15939192-.27201202.27845635-.45693695.33930187l.7733202 1.57577734h-.85181281zm.04605165-1.51041773h-.53448276v.85517241h.45693695-.00023859c.07396631.00023865.14793872-.00381773.22142857-.01169204.06824276-.00620367.13505005-.02433821.19709281-.05344828.05678895-.02744004.10499074-.06967212.13958857-.12240571.03817734-.06466325.05678895-.13886778.05344828-.2137931.00167027-.07062502-.00978317-.14101793-.0336437-.20734877-.0200428-.05297121-.05320944-.09973754-.09615803-.13624729-.11763507-.08327547-.26079704-.12240571-.40420335-.11023783z"/><path d="m15.76700376 26.33424063-.69482759 2.43931823-.5841133.00023865-.68792512-2.43449261v2.43498128h-.68578719v-3.58103448h1.02455764l.6353931 2.29827586.64137931-2.29827586h1.03414778v3.58103448h-.68291626z"/><path d="m16.97951607 25.1931963h.76476847v2.92462857h1.51041773v.65640591h-2.27512512z"/><path d="m20.48694464 28.82095984c-.16535369.00167027-.32975448-.02433821-.4865198-.07683113-.15557419-.05320944-.30422759-.12503232-.44261892-.2137931l.32761044-.60129616h.00023865c.08303724.07325163.17394818.13767665.27082089.19183961.10092867.05535714.21522246.08208433.33047527.07683113.11572315.00047725.22977872-.028633.33118995-.0844666.09186384-.05106234.17203626-.1204999.2357466-.20400749.0651397-.08541951.11715862-.1803864.15390049-.28132118.0386544-.10403172.06752808-.21140473.08661675-.32068966-.10212591.07372808-.21594325.13004118-.33667527.16631271-.12169103.03435961-.24767626.05130057-.37413793.05034644-.15915369.00214746-.31687192-.02815594-.46385773-.08876079-.13505005-.05631188-.25650286-.14101793-.35600217-.24815271-.09997576-.10856414-.17776591-.23550837-.22882581-.37413793-.05559598-.14841517-.08327547-.30589517-.08184-.46433419-.00286336-.1741864.02982597-.34693734.09639626-.50775862.06060668-.14364453.15175645-.27248847.26724138-.37747921.11739685-.1047464.25483527-.18491882.40396512-.23550837.16320966-.05583421.33476946-.08351369.50728217-.08184.36005813-.00954433.70582266.14220906.9427665.41374463.12765281.14841517.22023744.32355448.27153557.51252926.06323389.23096985.0932932.46981951.08923724.70912118.0264853.52350601-.11668217 1.04178325-.40825931 1.4774936-.26079704.36554956-.68743645.57671606-1.1362798.5621598zm.20639586-3.049667h-.00023859c-.14746227-.01264617-.29157714.04700577-.38702049.16034483-.08589596.11930266-.1293265.26437655-.12288217.41136236-.01026024.15151823.04294981.30040985.1469797.41112414.21737261.17394818.5216002.18921911.75517833.0379385.0975935-.06871921.17490108-.16225064.22405517-.27105911-.02171344-.17442463-.07396631-.34407251-.15390049-.50059961-.09830818-.15986837-.27487685-.2550735-.46242227-.24910562z"/><path d="m22.62792986 28.78308792 1.40517044-2.93440197h-1.64186995v-.65524532h2.49178916v.42758621l-1.45336552 3.16206108z"/><path d="m20.40020573 18.71893029 2.79910148-1.61633695v-3.23102463l-2.79910148 1.61896355z"/><path d="m22.66519095 12.94590566-2.79818522-1.61535961-2.79647488 1.61468768 2.80081182 1.61633695z"/><path d="m19.33124021 15.71483176v-.22977872l-2.79647488-1.61419901v3.23194089l2.79647488 1.61468768z"/><path d="m8.80101361 12.63743275 2.79647487 1.61419901v-3.23267389l-2.79647487-1.61395468z"/><path d="m27.67344711 8.37317659c-.0107373-.0107373-.0214746-.02672414-.03197367-.03746144h-.00023859c-.0107373-.01550977-.02338347-.02982597-.03746144-.04271098l-7.63791134-7.63791132c-.0107373-.0107373-.02672414-.0214746-.03746144-.03197367-.0107373-.0107373-.03197367-.02672414-.04271098-.03746144l-.08017241-.08565773h-13.4262069c-.56693044 0-1.1107468.22524631-1.51182266.62610837-.40086206.40110029-.62610837.94490443-.62610837 1.51182265v26.72413794c0 .56693044.22524631 1.1107468.62610837 1.51182266.4011003.40086207.94490443.62610837 1.51182266.62610837h19.24137932c.56693044 0 1.1107468-.22524631 1.51182266-.62610837.40086207-.4011003.62610837-.94490443.62610837-1.51182266v-20.90896552zm-7.55239409-6.05040591 5.81535566 5.81535566h-4.74639015c-.28322699-.00095437-.55452433-.11381734-.75493399-.31400709-.20018975-.20042798-.31305418-.47173143-.31400709-.75493399zm-12.38900493 5.84950148 4.4016335-2.54096158 4.40090049 2.54096158v3.84827586l3.33193498-1.92413793 4.40138916 2.54096158v5.08235074l-4.40138916 2.54138916-4.4009005-2.54096158v-3.84827586l-3.33193497 1.92413793-4.40138916-2.54138916zm18.95795074 21.18995074c-.00095443.283227-.11381734.55476256-.31400709.75493399s-.47173143.31305419-.75493399.31400709h-19.24137931c-.283227-.00095443-.55476257-.11381734-.75493399-.31400709-.20017143-.20018976-.31305419-.47173143-.3140071-.75493399v-8.30616749h7.33860099l1.44310345 1.65164335c.10045222.11643783.2471998.18277478.40086207.18182187h12.19720197z"/><path d="m14.93137814 8.48129482-2.79745222-1.61535961-2.79696354 1.61419902 2.80081182 1.61633694z"/><path d="m12.66700376 14.25370861 2.79910148-1.61584828v-3.23145221l-2.79910148 1.61847488z"/></g><path d="m-32 0h32v32h-32z" fill="none" stroke-width="3.09103" transform="scale(-1 1)"/></svg>