<svg height="32" viewBox="0 0 32 32" width="32" xmlns="http://www.w3.org/2000/svg"><g fill="#4d4d4d" stroke-width=".061084"><path d="m12.43732888 29.3896495c-.32474562.0100214-.64736552-.05702717-.94105616-.19565734-.24886739-.12431764-.46313695-.30780709-.62445911-.53448276-.16511547-.2357466-.28275054-.50155251-.34574621-.78242167-.14030325-.61847291-.14030325-1.26058522 0-1.87930246.06298956-.28084473.18062463-.54665064.34574621-.78242167.16129773-.22667567.37556729-.41016512.62445911-.53448276.59938424-.26079704 1.28013202-.26079704 1.87973005 0 .24696158.12527054.46027823.30876.62085517.53448276.16511547.2357466.28251232.50155251.34550187.78242167.07206049.30804532.10784946.62348177.10689655.93965123.03984737.63973005-.14101793 1.27371823-.51276749 1.79598424-.36554956.44643665-.92315862.69055172-1.49917833.65616158zm0-4.02792315v.00023859c-.30398936-.0229064-.59485182.12717635-.75255172.38797951-.18563961.36793182-.26986798.7785734-.24409675 1.18972808-.02577001.41136236.05845898.82200394.24409675 1.18972808.17227448.24242916.45096906.38654404.74827586.38654404s.57623961-.14412099.74827586-.38654404c.18611606-.3676936.27058266-.77832906.24481143-1.18972808.02577001-.41136236-.05869781-.82200394-.24481143-1.18972808-.15509773-.25912946-.44261892-.40921222-.744-.38797951z"/><path d="m16.74190031 29.32490073h-1.73490049v-4.77338916h1.77930837c.20520473-.00047719.4099269.01884983.61132611.05774307.18730719.03412077.36650246.10284059.5287531.20210167.15318581.09615803.27988571.22954049.3676936.38797951.09783172.18778365.14531212.39775901.13791488.60916985.00214746.20639586-.05106234.40945044-.15390049.58793103-.10570542.17824236-.26151172.32092788-.44786601.41064768.22763468.08518128.42114187.24290562.55046837.44882502.10832591.2190402.16105951.46146936.15342404.70557833.03173484.40181498-.14483567.7917064-.46766936 1.03268177-.39632966.24576433-.85944828.3614936-1.3245399.3307135zm.07325163-3.90172414h-.78883547v.96206897h.81461281-.00023859c.07229872.00071584.14435921-.00882843.2137931-.02815594.06466325-.01694097.12550877-.04533574.17967172-.08399015.05130057-.03746144.09377576-.08541951.12503232-.14054148.03388254-.06227488.05034644-.13242956.04819874-.20305458.01026024-.14054148-.0436651-.27821813-.1469797-.37413793-.12741458-.09663448-.2858536-.14292374-.44524552-.13004118zm.02242934 1.83440591h-.8112532v1.1956532h.82463054c.17609222.01264617.3509933-.03555257.49606719-.13624729.12455586-.1240733.18611606-.2982597.16726562-.47316079.01455503-.16440079-.04414278-.32689576-.16034483-.44404828-.15151823-.10355527-.33333399-.15294759-.516347-.14006502z"/><path d="m19.92558504 29.38293029c-.24552611.00978317-.48843172-.05225531-.69910345-.17848059-.20162522-.13696197-.37198778-.31472177-.50036138-.5216002l.72463645-.53758581c.05130057.09210207.11262621.17800414.183013.25650286.07492532.07540177.17919527.11429379.28537714.10689655.05273237.00214746.1047464-.01360091.14746227-.04485868.03841618-.03006481.06919567-.06871921.0897198-.11286443.02195228-.04676694.03722321-.09639626.04485868-.14746227.00835137-.04986938.01264617-.10021399.012885-.15080355v-3.50083153h1.0197931v3.45049852c.02934891.38010581-.09830818.75542266-.35266089 1.03915665-.25960591.23812887-.60415488.36125537-.95565517.34144591z"/><path d="m20.40020573 18.71893029 2.79910148-1.61633695v-3.23102463l-2.79910148 1.61896355z"/><path d="m22.66519095 12.94590566-2.79818522-1.61535961-2.79647488 1.61468768 2.80081182 1.61633695z"/><path d="m19.33124021 15.71483176v-.22977872l-2.79647488-1.61419901v3.23194089l2.79647488 1.61468768z"/><path d="m8.80101361 12.63743275 2.79647487 1.61419901v-3.23267389l-2.79647487-1.61395468z"/><path d="m27.67344711 8.37317659c-.0107373-.0107373-.0214746-.02672414-.03197367-.03746144h-.00023859c-.0107373-.01550977-.02338347-.02982597-.03746144-.04271098l-7.63791134-7.63791132c-.0107373-.0107373-.02672414-.0214746-.03746144-.03197367-.0107373-.0107373-.03197367-.02672414-.04271098-.03746144l-.08017241-.08565773h-13.4262069c-.56693044 0-1.1107468.22524631-1.51182266.62610837-.40086206.40110029-.62610837.94490443-.62610837 1.51182265v26.72413794c0 .56693044.22524631 1.1107468.62610837 1.51182266.4011003.40086207.94490443.62610837 1.51182266.62610837h19.24137932c.56693044 0 1.1107468-.22524631 1.51182266-.62610837.40086207-.4011003.62610837-.94490443.62610837-1.51182266v-20.90896552zm-7.55239409-6.05040591 5.81535566 5.81535566h-4.74639015c-.28322699-.00095437-.55452433-.11381734-.75493399-.31400709-.20018975-.20042798-.31305418-.47173143-.31400709-.75493399zm-12.38900493 5.84950148 4.4016335-2.54096158 4.40090049 2.54096158v3.84827586l3.33193498-1.92413793 4.40138916 2.54096158v5.08235074l-4.40138916 2.54138916-4.4009005-2.54096158v-3.84827586l-3.33193497 1.92413793-4.40138916-2.54138916zm18.95795074 21.18995074c-.00095443.283227-.11381734.55476256-.31400709.75493399s-.47173143.31305419-.75493399.31400709h-19.24137931c-.283227-.00095443-.55476257-.11381734-.75493399-.31400709-.20017143-.20018976-.31305419-.47173143-.3140071-.75493399v-8.30616749h7.33860099l1.44310345 1.65164335c.10045222.11643783.2471998.18277478.40086207.18182187h12.19720197z"/><path d="m14.93137814 8.48129482-2.79745222-1.61535961-2.79696354 1.61419902 2.80081182 1.61633694z"/><path d="m12.66700376 14.25370861 2.79910148-1.61584828v-3.23145221l-2.79910148 1.61847488z"/></g><path d="m-32 0h32v32h-32z" fill="none" stroke-width="3.09103" transform="scale(-1 1)"/></svg>