<svg height="32" viewBox="0 0 32 32" width="32" xmlns="http://www.w3.org/2000/svg"><g fill="#4d4d4d" stroke-width=".061084"><path d="m11.9449939 29.32490073h-1.57192906v-4.77338916h1.55952906c.33500768-.00787431.66813399.04986938.98094384.16988611.26247074.10450818.49606719.27058266.68096158.48437576.18420414.21999921.3192603.47697852.3958532.75352906.08899901.32045143.13219133.65188571.1283736.9844867.00524941.34169025-.04008621.68193892-.13481182 1.01026404-.08064887.27869458-.22524631.53495921-.42210089.74827586-.42090365.43569813-1.01240197.66355271-1.61682562.62250443zm-.01169204-3.90172414h-.54092709v3.03005911h.52803842c.20091054.00739663.40086207-.0336437.58244571-.11977911.14770049-.07540177.27248847-.18945734.36077281-.32975448.09091094-.14889163.15318581-.31353064.18348946-.48532867.03579141-.19303685.05368711-.38893241.05344828-.58530443.00357908-.22333438-.02123637-.44619842-.07372808-.66306404-.04032504-.16869498-.11286443-.32784867-.2137931-.4688666-.21331665-.26270897-.54259468-.40325044-.87972808-.37580552z"/><path d="m16.86284612 28.32495984h-1.35312709l-.27582975 1.00049064h-1.02626798l1.3793931-4.77338916h1.20518226l1.35984631 4.77192315h-1.03243744zm-1.12241379-.87233695h.89738128l-.43617458-1.6931803z"/><path d="m18.60739784 24.55181699h3.20048276v.87233695h-2.18062857v.97495764h1.59055961v.87233695l-1.59055961.0064425v1.17586207l2.25747192-.00023859v.87233695h-3.27726502z"/><path d="m20.40020573 18.71893029 2.79910148-1.61633695v-3.23102463l-2.79910148 1.61896355z"/><path d="m22.66519095 12.94590566-2.79818522-1.61535961-2.79647488 1.61468768 2.80081182 1.61633695z"/><path d="m19.33124021 15.71483176v-.22977872l-2.79647488-1.61419901v3.23194089l2.79647488 1.61468768z"/><path d="m8.80101361 12.63743275 2.79647487 1.61419901v-3.23267389l-2.79647487-1.61395468z"/><path d="m27.67344711 8.37317659c-.0107373-.0107373-.0214746-.02672414-.03197367-.03746144h-.00023859c-.0107373-.01550977-.02338347-.02982597-.03746144-.04271098l-7.63791134-7.63791132c-.0107373-.0107373-.02672414-.0214746-.03746144-.03197367-.0107373-.0107373-.03197367-.02672414-.04271098-.03746144l-.08017241-.08565773h-13.4262069c-.56693044 0-1.1107468.22524631-1.51182266.62610837-.40086206.40110029-.62610837.94490443-.62610837 1.51182265v26.72413794c0 .56693044.22524631 1.1107468.62610837 1.51182266.4011003.40086207.94490443.62610837 1.51182266.62610837h19.24137932c.56693044 0 1.1107468-.22524631 1.51182266-.62610837.40086207-.4011003.62610837-.94490443.62610837-1.51182266v-20.90896552zm-7.55239409-6.05040591 5.81535566 5.81535566h-4.74639015c-.28322699-.00095437-.55452433-.11381734-.75493399-.31400709-.20018975-.20042798-.31305418-.47173143-.31400709-.75493399zm-12.38900493 5.84950148 4.4016335-2.54096158 4.40090049 2.54096158v3.84827586l3.33193498-1.92413793 4.40138916 2.54096158v5.08235074l-4.40138916 2.54138916-4.4009005-2.54096158v-3.84827586l-3.33193497 1.92413793-4.40138916-2.54138916zm18.95795074 21.18995074c-.00095443.283227-.11381734.55476256-.31400709.75493399s-.47173143.31305419-.75493399.31400709h-19.24137931c-.283227-.00095443-.55476257-.11381734-.75493399-.31400709-.20017143-.20018976-.31305419-.47173143-.3140071-.75493399v-8.30616749h7.33860099l1.44310345 1.65164335c.10045222.11643783.2471998.18277478.40086207.18182187h12.19720197z"/><path d="m14.93137814 8.48129482-2.79745222-1.61535961-2.79696354 1.61419902 2.80081182 1.61633694z"/><path d="m12.66700376 14.25370861 2.79910148-1.61584828v-3.23145221l-2.79910148 1.61847488z"/></g><path d="m-32 0h32v32h-32z" fill="none" stroke-width="3.09103" transform="scale(-1 1)"/></svg>