<svg height="32" viewBox="0 0 32 32" width="32" xmlns="http://www.w3.org/2000/svg"><g fill="#4d4d4d" stroke-width=".061084"><path d="m12.92660967 27.45207314h-.72964532v1.87068966h-1.01936552v-4.77119015h1.75689064c.22715823-.00190887.45335744.02386053.67405911.07706936.19518089.04557397.37867034.13075586.53972985.25006463.15605064.11834975.28036217.27392394.3614936.4521602.09257852.21331665.13743842.4442865.13075586.67668571.02600824.41040946-.14220906.80935961-.45431034 1.07757833-.36387586.26605025-.80960394.39609143-1.25960788.36697892zm-.07969596-2.02675862h-.64999212v1.15723153h.64999212c.09806995.00023859.19589557-.0071584.29301261-.02195228.08565773-.0121691.16869498-.03984737.2445732-.08184.07158404-.03960914.13051764-.09830818.17108335-.16940966.04628987-.08780788.06848099-.18611606.0641868-.28537714.00357914-.09711094-.01169204-.19398975-.04485868-.28537714-.0264853-.06824276-.07110759-.12789714-.12885005-.17251271-.18014818-.10856414-.38964709-.15771823-.59914601-.1407797z"/><path d="m15.16044218 24.55181699h1.01936552v3.90172414h2.01173202v.87233695h-3.03103645z"/><path d="m19.91947666 29.32490073h-1.01936552v-1.89219113l-1.3219133-2.88119803h1.07800591l.74827586 1.72537143.75206305-1.72537143h1.07757833l-1.31470542 2.86042956z"/><path d="m20.40020573 18.71893029 2.79910148-1.61633695v-3.23102463l-2.79910148 1.61896355z"/><path d="m22.66519095 12.94590566-2.79818522-1.61535961-2.79647488 1.61468768 2.80081182 1.61633695z"/><path d="m19.33124021 15.71483176v-.22977872l-2.79647488-1.61419901v3.23194089l2.79647488 1.61468768z"/><path d="m8.80101361 12.63743275 2.79647487 1.61419901v-3.23267389l-2.79647487-1.61395468z"/><path d="m27.67344711 8.37317659c-.0107373-.0107373-.0214746-.02672414-.03197367-.03746144h-.00023859c-.0107373-.01550977-.02338347-.02982597-.03746144-.04271098l-7.63791134-7.63791132c-.0107373-.0107373-.02672414-.0214746-.03746144-.03197367-.0107373-.0107373-.03197367-.02672414-.04271098-.03746144l-.08017241-.08565773h-13.4262069c-.56693044 0-1.1107468.22524631-1.51182266.62610837-.40086206.40110029-.62610837.94490443-.62610837 1.51182265v26.72413794c0 .56693044.22524631 1.1107468.62610837 1.51182266.4011003.40086207.94490443.62610837 1.51182266.62610837h19.24137932c.56693044 0 1.1107468-.22524631 1.51182266-.62610837.40086207-.4011003.62610837-.94490443.62610837-1.51182266v-20.90896552zm-7.55239409-6.05040591 5.81535566 5.81535566h-4.74639015c-.28322699-.00095437-.55452433-.11381734-.75493399-.31400709-.20018975-.20042798-.31305418-.47173143-.31400709-.75493399zm-12.38900493 5.84950148 4.4016335-2.54096158 4.40090049 2.54096158v3.84827586l3.33193498-1.92413793 4.40138916 2.54096158v5.08235074l-4.40138916 2.54138916-4.4009005-2.54096158v-3.84827586l-3.33193497 1.92413793-4.40138916-2.54138916zm18.95795074 21.18995074c-.00095443.283227-.11381734.55476256-.31400709.75493399s-.47173143.31305419-.75493399.31400709h-19.24137931c-.283227-.00095443-.55476257-.11381734-.75493399-.31400709-.20017143-.20018976-.31305419-.47173143-.3140071-.75493399v-8.30616749h7.33860099l1.44310345 1.65164335c.10045222.11643783.2471998.18277478.40086207.18182187h12.19720197z"/><path d="m14.93137814 8.48129482-2.79745222-1.61535961-2.79696354 1.61419902 2.80081182 1.61633694z"/><path d="m12.66700376 14.25370861 2.79910148-1.61584828v-3.23145221l-2.79910148 1.61847488z"/></g><path d="m-32 0h32v32h-32z" fill="none" stroke-width="3.09103" transform="scale(-1 1)"/></svg>