<svg height="32" viewBox="0 0 32 32" width="32" xmlns="http://www.w3.org/2000/svg"><g fill="#4d4d4d" stroke-width=".061084"><path d="m11.74463922 26.40082191h1.54572414l.0064425.87233695-1.55.0064425v2.04606108l-1.02193103-.00023865v-4.77338916h3.09138719v.87233695h-2.07159409z"/><path d="m16.02599883 29.32490073h-1.73612217v-4.77338916h1.77979704c.20520473-.00047719.4099269.01884983.61157044.05774307.18706897.03412077.36602601.10260236.52803842.20210167.15366227.0959198.28036217.22954049.36817005.38797951.09783172.18778365.14507389.39775901.13743842.60916985.00238611.20639586-.05058467.40945044-.15342404.58793103-.10546719.17824236-.26151172.32116611-.44834246.41064768.22787291.08518128.4213801.24290562.55094483.44882502.10832591.2190402.16082128.46146936.15342404.70557833.03197367.40181498-.14459744.7917064-.46766936 1.03268177-.39609143.24552611-.85895961.36125537-1.3238069.3307135zm.07372808-3.90172414h-.7890798v.96206897h.81461281c.07229872.00071584.14412099-.00882843.2137931-.02815594.06442502-.01694097.12527054-.04533574.17967172-.08399015.05106234-.03746144.09377576-.08541951.12503232-.14054148.0336437-.06227488.05010761-.13242956.04819874-.20305458.01049907-.1407797-.04390394-.27845635-.14770049-.37413793-.12717635-.09663448-.28537714-.14292374-.44452473-.13004118zm.0229064 1.83440591h-.81198621v1.1956532h.82414187c.17633044.01264617.35170798-.03531373.49654365-.13624729.12479409-.1240733.18635429-.2982597.16750384-.47316079.01479387-.16440079-.04390394-.32689576-.16034483-.44404828-.15128-.10355527-.33309576-.15294759-.51587054-.14006502z"/><path d="m19.92253085 27.84361994-.72463645 1.48152512h-1.1224138l1.28917241-2.44359409-1.21239015-2.32979507h1.1224138l.6477931 1.34048276.6477931-1.34048276h1.1224138l-1.21214581 2.32808473 1.28917241 2.44359409h-1.12241379z"/><path d="m20.40020573 18.71893029 2.79910148-1.61633695v-3.23102463l-2.79910148 1.61896355z"/><path d="m22.66519095 12.94590566-2.79818522-1.61535961-2.79647488 1.61468768 2.80081182 1.61633695z"/><path d="m19.33124021 15.71483176v-.22977872l-2.79647488-1.61419901v3.23194089l2.79647488 1.61468768z"/><path d="m8.80101361 12.63743275 2.79647487 1.61419901v-3.23267389l-2.79647487-1.61395468z"/><path d="m27.67344711 8.37317659c-.0107373-.0107373-.0214746-.02672414-.03197367-.03746144h-.00023859c-.0107373-.01550977-.02338347-.02982597-.03746144-.04271098l-7.63791134-7.63791132c-.0107373-.0107373-.02672414-.0214746-.03746144-.03197367-.0107373-.0107373-.03197367-.02672414-.04271098-.03746144l-.08017241-.08565773h-13.4262069c-.56693044 0-1.1107468.22524631-1.51182266.62610837-.40086206.40110029-.62610837.94490443-.62610837 1.51182265v26.72413794c0 .56693044.22524631 1.1107468.62610837 1.51182266.4011003.40086207.94490443.62610837 1.51182266.62610837h19.24137932c.56693044 0 1.1107468-.22524631 1.51182266-.62610837.40086207-.4011003.62610837-.94490443.62610837-1.51182266v-20.90896552zm-7.55239409-6.05040591 5.81535566 5.81535566h-4.74639015c-.28322699-.00095437-.55452433-.11381734-.75493399-.31400709-.20018975-.20042798-.31305418-.47173143-.31400709-.75493399zm-12.38900493 5.84950148 4.4016335-2.54096158 4.40090049 2.54096158v3.84827586l3.33193498-1.92413793 4.40138916 2.54096158v5.08235074l-4.40138916 2.54138916-4.4009005-2.54096158v-3.84827586l-3.33193497 1.92413793-4.40138916-2.54138916zm18.95795074 21.18995074c-.00095443.283227-.11381734.55476256-.31400709.75493399s-.47173143.31305419-.75493399.31400709h-19.24137931c-.283227-.00095443-.55476257-.11381734-.75493399-.31400709-.20017143-.20018976-.31305419-.47173143-.3140071-.75493399v-8.30616749h7.33860099l1.44310345 1.65164335c.10045222.11643783.2471998.18277478.40086207.18182187h12.19720197z"/><path d="m14.93137814 8.48129482-2.79745222-1.61535961-2.79696354 1.61419902 2.80081182 1.61633694z"/><path d="m12.66700376 14.25370861 2.79910148-1.61584828v-3.23145221l-2.79910148 1.61847488z"/></g><path d="m-32 0h32v32h-32z" fill="none" stroke-width="3.09103" transform="scale(-1 1)"/></svg>