<svg height="32" viewBox="0 0 32 32" width="32" xmlns="http://www.w3.org/2000/svg"><g fill="#4d4d4d" stroke-width=".061084"><path d="m12.43427469 29.3896495c-.32474562.0100214-.64736552-.05702717-.94130049-.19565734-.24862916-.12431764-.46313695-.30780709-.62421478-.53448276-.16511547-.2357466-.28251232-.50155251-.34598443-.78242167-.14030325-.61847291-.14030325-1.26058522 0-1.87930246.06347212-.28084473.18086286-.54665064.34598443-.78242167.16105951-.22667567.37556729-.41016512.62421478-.53448276.59938424-.26079704 1.28037635-.26079704 1.87973005 0 .2471998.12527054.46051645.30852177.62109951.53448276.16511547.2357466.28251232.50155251.34574621.78242167.07206049.30804532.10784946.62348177.10689655.93965123.04032504.63973005-.14054148 1.27390148-.51252926 1.79598424-.36578778.44643665-.92340296.69079606-1.499667.65616158zm0-4.02792315v.00023859c-.30398936-.0229064-.59485182.12717635-.75255172.38797951-.18563961.36793182-.26986798.7785734-.24433498 1.18972808-.02553117.41136236.05869781.82200394.24433498 1.18972808.17203626.24338207.45144552.38797951.74949754.38797951.29802148 0 .57766897-.14459744.74968079-.38797951.18587783-.3676936.27034443-.77832906.24481143-1.18972808.02553117-.41136236-.05893604-.82200394-.24481143-1.18972808-.15557419-.26008236-.44452473-.41016512-.7466266-.38797951z"/><path d="m16.02294464 26.40082191h1.54615172l.00596519.87233695-1.55.0064425v2.04606108l-1.02150345-.00023865v-4.77338916h3.09095961v.87233695h-2.07159409z"/><path d="m19.58901361 26.40082191h1.54572414l.0064425.87233695-1.55.0064425v2.04606108l-1.02125911-.00023865v-4.77338916h3.09095961v.87233695h-2.07183842z"/><path d="m20.40020573 18.71893029 2.79910148-1.61633695v-3.23102463l-2.79910148 1.61896355z"/><path d="m22.66519095 12.94590566-2.79818522-1.61535961-2.79647488 1.61468768 2.80081182 1.61633695z"/><path d="m19.33124021 15.71483176v-.22977872l-2.79647488-1.61419901v3.23194089l2.79647488 1.61468768z"/><path d="m8.80101361 12.63743275 2.79647487 1.61419901v-3.23267389l-2.79647487-1.61395468z"/><path d="m27.67344711 8.37317659c-.0107373-.0107373-.0214746-.02672414-.03197367-.03746144h-.00023859c-.0107373-.01550977-.02338347-.02982597-.03746144-.04271098l-7.63791134-7.63791132c-.0107373-.0107373-.02672414-.0214746-.03746144-.03197367-.0107373-.0107373-.03197367-.02672414-.04271098-.03746144l-.08017241-.08565773h-13.4262069c-.56693044 0-1.1107468.22524631-1.51182266.62610837-.40086206.40110029-.62610837.94490443-.62610837 1.51182265v26.72413794c0 .56693044.22524631 1.1107468.62610837 1.51182266.4011003.40086207.94490443.62610837 1.51182266.62610837h19.24137932c.56693044 0 1.1107468-.22524631 1.51182266-.62610837.40086207-.4011003.62610837-.94490443.62610837-1.51182266v-20.90896552zm-7.55239409-6.05040591 5.81535566 5.81535566h-4.74639015c-.28322699-.00095437-.55452433-.11381734-.75493399-.31400709-.20018975-.20042798-.31305418-.47173143-.31400709-.75493399zm-12.38900493 5.84950148 4.4016335-2.54096158 4.40090049 2.54096158v3.84827586l3.33193498-1.92413793 4.40138916 2.54096158v5.08235074l-4.40138916 2.54138916-4.4009005-2.54096158v-3.84827586l-3.33193497 1.92413793-4.40138916-2.54138916zm18.95795074 21.18995074c-.00095443.283227-.11381734.55476256-.31400709.75493399s-.47173143.31305419-.75493399.31400709h-19.24137931c-.283227-.00095443-.55476257-.11381734-.75493399-.31400709-.20017143-.20018976-.31305419-.47173143-.3140071-.75493399v-8.30616749h7.33860099l1.44310345 1.65164335c.10045222.11643783.2471998.18277478.40086207.18182187h12.19720197z"/><path d="m14.93137814 8.48129482-2.79745222-1.61535961-2.79696354 1.61419902 2.80081182 1.61633694z"/><path d="m12.66700376 14.25370861 2.79910148-1.61584828v-3.23145221l-2.79910148 1.61847488z"/></g><path d="m-32 0h32v32h-32z" fill="none" stroke-width="3.09103" transform="scale(-1 1)"/></svg>