<svg height="32" viewBox="0 0 32 32" width="32" xmlns="http://www.w3.org/2000/svg"><g fill="#4d4d4d"><path d="m20.40020573 18.71893029 2.79910148-1.61633695v-3.23102463l-2.79910148 1.61896355z" stroke-width=".061084"/><path d="m22.66519095 12.94590566-2.79818522-1.61535961-2.79647488 1.61468768 2.80081182 1.61633695z" stroke-width=".061084"/><path d="m19.33124021 15.71483176v-.22977872l-2.79647488-1.61419901v3.23194089l2.79647488 1.61468768z" stroke-width=".061084"/><path d="m8.80101361 12.63743275 2.79647488 1.61419901v-3.23267389l-2.79647488-1.61395468z" stroke-width=".061084"/><path d="m27.67344711 8.37317659c-.0107373-.0107373-.0214746-.02672414-.03197367-.03746144h-.00023859c-.0107373-.01550977-.02338347-.02982597-.03746144-.04271098l-7.63791134-7.63791132c-.0107373-.0107373-.02672414-.0214746-.03746144-.03197367-.0107373-.0107373-.03197367-.02672414-.04271098-.03746144l-.08017241-.08565773h-13.4262069c-.56693044 0-1.1107468.22524631-1.51182266.62610837-.40086206.40110029-.62610837.94490443-.62610837 1.51182265v26.72413794c0 .56693044.22524631 1.1107468.62610837 1.51182266.4011003.40086206.94490444.62610837 1.51182266.62610837h19.24137932c.56693044 0 1.1107468-.22524631 1.51182266-.62610837.40086207-.4011003.62610837-.94490443.62610837-1.51182266v-20.90896552zm-7.55239409-6.05040591 5.81535566 5.81535566h-4.74639015c-.28322699-.00095437-.55452433-.11381734-.75493399-.31400709-.20018975-.20042798-.31305418-.47173143-.31400709-.75493399zm-12.38900493 5.84950148 4.4016335-2.54096158 4.40090049 2.54096158v3.84827586l3.33193498-1.92413793 4.40138916 2.54096158v5.08235074l-4.40138916 2.54138916-4.4009005-2.54096158v-3.84827586l-3.33193497 1.92413793-4.40138916-2.54138916zm18.95795074 21.18995074c-.00095443.283227-.11381734.55476256-.31400709.75493399s-.47173143.31305419-.75493399.31400709h-19.24137931c-.283227-.00095443-.55476257-.11381734-.75493399-.31400709-.20017143-.20018976-.31305419-.47173143-.3140071-.75493399v-8.30616749h7.33860099l1.44310345 1.65164335c.10045222.11643783.2471998.18277478.40086207.18182187h12.19720197z" stroke-width=".061084"/><path d="m14.93137814 8.48129482-2.79745222-1.61535961-2.79696354 1.61419902 2.80081182 1.61633694z" stroke-width=".061084"/><path d="m12.66700376 14.25370861 2.79910148-1.61584828v-3.23145221l-2.79910148 1.61847488z" stroke-width=".061084"/><path d="m8.62037025 26.63753892h1.41572254l.00786718.79896991-1.41963879.00590066v1.87397915l-.9379966-.00021858v-4.371928h2.83138913v.79896991h-1.89736472z" stroke-width=".055946"/><path d="m12.45116652 29.37499413c-.28891258.00917856-.57540827-.05550942-.83220205-.18794619-.22028878-.11954058-.40735661-.29219103-.54394964-.50220806-.13986589-.21941601-.23929935-.46221201-.29371837-.71678471-.12085532-.55050096-.12085532-1.12066146 0-1.6711736.05419803-.25612801.15516162-.50002056.2976514-.71963798.13812036-.20979884.32606096-.38222551.54678612-.50220806.25678259-.13243621.54328947-.19712139.83220205-.18794619.3297758-.00677454.65496399.07801719.93928337.24476531.14533185.08872533.26727253.21088979.35600345.35643983.11538936.19209741.20346011.39970874.26137578.61630506l-.85754575.20564762c-.05397928-.16543338-.14205339-.31754033-.25853371-.4464799-.12413378-.12325542-.29524571-.18750981-.46985988-.1763597-.1075233-.00218538-.21373186.02316515-.30857772.07408416-.08676161.04829737-.16215492.11495298-.22028878.19581225-.06141232.08435592-.11080176.17701987-.14685918.27492599-.03693355.10337208-.06512715.20936245-.08457411.31732214-.01945031.10664494-.03212552.21438644-.03824437.32256431-.00590066.10620856-.00874162.20324192-.00874162.28978534-.02163557.36692977.04917181.73362457.20564762 1.0662816.11954058.22990596.3640877.36714796.622627.34944654.09899708.00196685.19778156-.01464228.2906581-.04895306.077799-.02950275.14860471-.07452055.20870788-.13221802.06119412-.06031577.1145166-.12850319.15844008-.20258735.04982694-.08348315.09484586-.16980838.13527829-.25853371l.88115511.22903319v.00021853c-.07212045.19603044-.16783907.38266189-.28497955.55553053-.0985607.14161142-.22072516.26509062-.36124562.36517865-.30311736.20258735-.66240486.30399012-1.02650374.28978534z" stroke-width=".055946"/><path d="m23.03110701 29.31185944h-1.44129003v-4.371928h1.42948535c.3068322-.00721204.61210908.04567516.89861037.15559801.24061409.09571862.45434595.24782557.62368998.44363782.16893002.2014964.29262742.43686272.36277855.69015425.08129565.29350018.12063153.5972833.1169167.90168742.00480786.31272894-.03649605.62458512-.12281904.92529678-.07408416.25503706-.20630219.48974881-.38615853.68534286-.38572215.39883598-.92770248.60752148-1.48129167.57014932zm-.01070869-3.5735735h-.49565115v2.775219h.48472482c.18401316.00677454.36714796-.03081413.53367789-.10970521.1350601-.06906018.24913472-.17330503.3297758-.30202081.08370134-.13615105.14073865-.28694327.16849364-.44451058.03278121-.17680167.04917181-.35622164.04895306-.53607798.00327812-.20455107-.01945031-.40867135-.06752725-.6072977-.03693355-.15450705-.10337208-.30027528-.19581225-.42943304-.19559406-.24083228-.49761486-.36955366-.80685835-.34419877z" stroke-width=".055946"/><path d="m16.14127181 29.37116258c-.32671553-.00196685-.64729934-.08894352-.93010817-.25263137-.1580037-.08413773-.29940252-.19668501-.41697379-.33174511-.13024871-.15603998-.23536632-.33152692-.3114198-.51990949l.78324899-.34267143c.04414503.09659698.09506405.18969172.15276153.27907721.05157527.08042289.11495298.15276153.18794619.21438644.07277502.05987938.15559801.10664494.24476531.13789658.10118458.03452953.20739314.05113833.31426187.04895306.08085927.00021853.16150035-.00764899.24083228-.0233839.07364778-.01398659.1442353-.04064838.20848969-.07933193.06075215-.03715174.11036538-.09004007.14401711-.15276153.03780743-.07583529.05616455-.15997301.05288665-.24476531-.00437081-.15254333-.08938549-.29109449-.22334904-.3640877-.18575869-.12041334-.38484939-.21897963-.59331111-.29371837-.36452408-.12413378-.70744167-.3044265-1.01620961-.53476884-.23842659-.20717495-.36845711-.512698-.3525068-.8282858-.00568191-.33633271.1464228-.65585913.41129523-.86347606.2906581-.23362079.65541156-.35513068 1.02801429-.34267143.32759389-.00524497.6501526.0823922.93010817.25263137.13899313.08370134.26203035.19122465.36430589.31710395.11823143.15057402.2150466.31666757.28781603.49346365l-.86347606.26443605h-.00021853c-.06009758-.15297972-.1512286-.29197284-.26727253-.40823497-.12500654-.11014719-.28891258-.16609354-.45521872-.15582179-.0642488.00021858-.1280668.00721204-.19078826.02076113-.0618487.01245702-.12107351.03431078-.1763597.06446699-.11473479.06228508-.18401316.18401316-.17920177.31426187.00087416.06119412.02032419.12063153.05594636.17046295.05092014.0664363.11604393.12063153.19078826.15865827.20346011.11232909.41653741.20673857.6363898.28191928.32212793.10774149.62391376.26858727.89295979.47576222.28104093.21329548.4372991.55247027.41697379.90476447.02185377.37916524-.13199983.74738737-.41697379.99853056-.33152692.24520169-.73888353.36583882-1.15036898.34070212z" stroke-width=".055946"/><path d="m20.02659816 29.31607988h-.93402442v-3.5735735h-1.10426918v-.7983545h3.14871687v.79896991h-1.11042328z" stroke-width=".055946"/></g><path d="m-32 0h32v32h-32z" fill="none" stroke-width="3.09103" transform="scale(-1 1)"/></svg>