<svg height="32" viewBox="0 0 32 32" width="32" xmlns="http://www.w3.org/2000/svg"><g fill="#4d4d4d" stroke-width=".061084"><path d="m11.77823528 29.3896495c-.38082049.00596526-.75517833-.09878463-1.07757833-.30136276-.14173261-.08852256-.27201202-.19398975-.38797951-.31424532-.1064201-.11381734-.19422798-.2436203-.25984414-.38487645l.78883548-.44261892h.00023859c.03889324.07969596.0861403.15485951.14101793.22453163.06084491.07348985.12980296.14030325.20520473.19876039.17466286.13219133.3906.19804571.60940808.18611606.18348946.00429498.36292296-.05583421.50656749-.16988611.14340631-.11619961.22285793-.29372729.2137931-.47793143.00811253-.13910601-.03770028-.27582975-.12813537-.38153517-.08804611-.09353143-.19685458-.16511547-.3175866-.20854601-.13099409-.04796051-.26819429-.07730759-.4073064-.08661675-.14531212-.0107373-.27582975-.01598684-.39131468-.01598684h-.15390049v-.83367093h.12192926c.2982597.02028164.59723409-.03006481.87233695-.14770049.15891547-.07659291.25721754-.24051724.25006463-.41684768.00071578-.07468709-.01765687-.14817695-.05344828-.2137931-.03245074-.05989078-.07730759-.11238187-.13147054-.15390049-.05607304-.0429492-.11954089-.07540177-.18706897-.09568158-.06919567-.02123637-.14125616-.03197367-.2137931-.03197367-.17728335-.0057266-.35194621.0436651-.50036138.14101793-.14435921.10092867-.27582975.21952276-.39107645.35266089l-.65426798-.59651941v.00023859c.18921911-.21737261.41637123-.39847369.67027192-.53448276.2560264-.13409714.54140355-.2023399.83061675-.19899862.41207704-.02028164.819133.09949931 1.15436059.34001655.31305419.23240532.4855669.60868729.45693695.9976197s-.25435882.7361202-.59795488.92004335c.23503192.09353143.43211862.26294719.56001576.48103448.12431764.21880197.18754542.46671645.18277478.718467.01598684.40706818-.1627332.79744828-.48103448 1.05180099-.34932571.27511507-.78596453.4151801-1.23028768.39489419z"/><path d="m15.86351607 29.32490073h-1.57363941v-4.77338916h1.56075074c.33500768-.00787431.66831724.04986938.98112709.16988611.26270897.10450818.49606719.27058266.68096158.48437576.18444236.21999921.31949852.47697852.39609143.75352906.08876079.32045143.13170877.65213005.12765281.9844867.00524935.34144591-.03984737.68193892-.13409714 1.01026404-.08088709.27845635-.22524631.53472099-.42161833.74827586-.42114187.4354599-1.01289064.66330837-1.61731429.62250443zm-.01169204-3.90172414h-.54116532v3.03005911h.52923567c.20091054.00739663.40086207-.0336437.58268394-.11977911.14746227-.07540177.27201202-.18921911.36005813-.32975448.09138739-.1486534.15366227-.31329241.18396591-.48532867.03579141-.19303685.05368711-.38893241.05344828-.58530443.00357914-.22333438-.02123637-.44619842-.07372808-.66306404-.04032504-.16869498-.11286443-.32784867-.2137931-.4688666-.21355488-.26294719-.54330936-.40348867-.88094975-.37580552z"/><path d="m20.08928947 29.3896495c-.35671685-.00214746-.70673892-.09711094-1.01551724-.27582975-.17251271-.09186384-.32689576-.21474601-.45526325-.36220828-.14220906-.17036867-.25697931-.36197005-.34001655-.56765123l.85517241-.37413793c.04819874.10546719.1037935.20711054.16678916.30470404.05631127.08780788.12550877.16678916.20520473.23407291.07945773.06537793.16988611.11643783.26724138.15055921.11047606.03770028.22643744.05583421.34311961.05344828.08828433.00023859.17633044-.00835137.26294719-.02553117.08041064-.01527094.15748-.044381.22763468-.08661675.06633084-.04056327.1204999-.09830818.15724177-.16678916.04127917-.08279901.06132197-.17466286.05774307-.26724138-.00477217-.16655094-.0975935-.31782483-.24385852-.39752079-.20281635-.13147054-.42018897-.23908788-.6477931-.32068966-.39799724-.13553261-.77240394-.33238108-1.10952512-.58387507-.26032059-.22619921-.40229143-.55977754-.38487645-.90434483-.00620367-.36721714.15986837-.71608473.44906325-.9427665.31734837-.2550735.71559606-.38774128 1.12241379-.37413793.35767586-.0057266.70985419.08995803 1.01551724.27582975.15175645.09138739.28609182.20878424.39775901.34622266.12908828.16440079.23479369.34574621.31424532.53877695l-.9427665.28871842h-.00023859c-.06561616-.16702739-.16511547-.31878384-.29181537-.44572197-.13648552-.12026167-.31544256-.18134542-.4970201-.17013044-.07014857.00023865-.1398268.00787431-.20830778.02266757-.06752808.01360091-.13219133.03746144-.19255429.0703868-.12527054.06800453-.20091054.20091054-.19565734.34311961.00095443.0668134.0221905.13170877.06108374.18611606.05559598.07253695.1266999.13170877.20830778.17322739.22214325.12264394.4547868.22572276.69482759.30780709.35170798.11763507.68120591.29325084.97495764.51945005.30684808.23288177.47745498.60320197.45526325.98784631.02386053.41398286-.14412099.81601773-.45526325 1.09022266-.36197005.26771783-.806733.39943271-1.25600394.37198778z"/><path d="m20.40020573 18.71893029 2.79910148-1.61633695v-3.23102463l-2.79910148 1.61896355z"/><path d="m22.66519095 12.94590566-2.79818522-1.61535961-2.79647488 1.61468768 2.80081182 1.61633695z"/><path d="m19.33124021 15.71483176v-.22977872l-2.79647488-1.61419901v3.23194089l2.79647488 1.61468768z"/><path d="m8.80101361 12.63743275 2.79647487 1.61419901v-3.23267389l-2.79647487-1.61395468z"/><path d="m27.67344711 8.37317659c-.0107373-.0107373-.0214746-.02672414-.03197367-.03746144h-.00023859c-.0107373-.01550977-.02338347-.02982597-.03746144-.04271098l-7.63791134-7.63791132c-.0107373-.0107373-.02672414-.0214746-.03746144-.03197367-.0107373-.0107373-.03197367-.02672414-.04271098-.03746144l-.08017241-.08565773h-13.4262069c-.56693044 0-1.1107468.22524631-1.51182266.62610837-.40086206.40110029-.62610837.94490443-.62610837 1.51182265v26.72413794c0 .56693044.22524631 1.1107468.62610837 1.51182266.4011003.40086207.94490443.62610837 1.51182266.62610837h19.24137932c.56693044 0 1.1107468-.22524631 1.51182266-.62610837.40086207-.4011003.62610837-.94490443.62610837-1.51182266v-20.90896552zm-7.55239409-6.05040591 5.81535566 5.81535566h-4.74639015c-.28322699-.00095437-.55452433-.11381734-.75493399-.31400709-.20018975-.20042798-.31305418-.47173143-.31400709-.75493399zm-12.38900493 5.84950148 4.4016335-2.54096158 4.40090049 2.54096158v3.84827586l3.33193498-1.92413793 4.40138916 2.54096158v5.08235074l-4.40138916 2.54138916-4.4009005-2.54096158v-3.84827586l-3.33193497 1.92413793-4.40138916-2.54138916zm18.95795074 21.18995074c-.00095443.283227-.11381734.55476256-.31400709.75493399s-.47173143.31305419-.75493399.31400709h-19.24137931c-.283227-.00095443-.55476257-.11381734-.75493399-.31400709-.20017143-.20018976-.31305419-.47173143-.3140071-.75493399v-8.30616749h7.33860099l1.44310345 1.65164335c.10045222.11643783.2471998.18277478.40086207.18182187h12.19720197z"/><path d="m14.93137814 8.48129482-2.79745222-1.61535961-2.79696354 1.61419902 2.80081182 1.61633694z"/><path d="m12.66700376 14.25370861 2.79910148-1.61584828v-3.23145221l-2.79910148 1.61847488z"/></g><path d="m-32 0h32v32h-32z" fill="none" stroke-width="3.09103" transform="scale(-1 1)"/></svg>