<svg height="32" viewBox="0 0 32 32" width="32" xmlns="http://www.w3.org/2000/svg"><g fill="#4d4d4d" transform="matrix(.06108374 0 0 .06108374 -5.378967 -1.103355)"><path d="m449.63662252 467.48h-11.945v30.625h-16.688v-78.109h28.762c3.7148-.03125 7.4219.39062 11.035 1.2617 3.1914.74609 6.1992 2.1406 8.8359 4.0938 2.5547 1.9375 4.5859 4.4844 5.9141 7.4023 1.5195 3.4922 2.25 7.2734 2.1445 11.078.42578 6.7188-2.3281 13.25-7.4375 17.641-5.957 4.3555-13.258 6.4844-20.621 6.0078zm-1.2852-33.18h-10.66v18.945h10.656c1.6055.003906 3.2109-.11719 4.7969-.35938 1.4062-.19922 2.7617-.65234 4.0078-1.3398 1.168-.64844 2.1367-1.6094 2.7969-2.7734.75781-1.4375 1.1211-3.0469 1.0508-4.6719.058594-1.5898-.19141-3.1758-.73438-4.6719-.43359-1.1172-1.1641-2.0938-2.1094-2.8242-2.9453-1.7773-6.3789-2.582-9.8086-2.3047z"/><path d="m318.52444615 467.25h-10.66v30.871h-16.711v-78.121h31.273c3.5625-.050781 7.1094.48438 10.5 1.5742 2.9688.94922 5.6992 2.5234 8.0039 4.6211 2.2617 2.1211 4.0156 4.7227 5.1289 7.6133 1.2812 3.3672 1.9023 6.9492 1.8281 10.551.10156 4.2734-1.1211 8.4727-3.5 12.023-2.4453 3.4766-5.9453 6.0703-9.9844 7.4023l16.949 34.336h-18.621zm.99609-32.969h-11.656v18.691h9.9844v-.003906c1.6094 0 3.2188-.085938 4.8203-.25391 1.4961-.14453 2.957-.54297 4.3164-1.1797 1.2344-.60156 2.2852-1.5273 3.0352-2.6758.83984-1.4258 1.2422-3.0664 1.1562-4.7188.039062-1.5391-.20703-3.0742-.73438-4.5234-.4375-1.1523-1.1602-2.1758-2.1016-2.9766-2.5742-1.7891-5.6953-2.6133-8.8203-2.3359z"/><path d="m422.03 324.51 45.824-26.461v-52.895l-45.824 26.504z"/><path d="m459.11 230-45.809-26.445-45.781 26.434 45.852 26.461z"/><path d="m404.53 275.33v-3.7617l-45.781-26.426v52.91l45.781 26.434z"/><path d="m232.14 224.95 45.781 26.426v-52.922l-45.781-26.422z"/><path d="m541.1 155.14c-.17578-.17578-.35156-.4375-.52344-.61328h-.003906c-.17578-.25391-.38281-.48828-.61328-.69922l-125.04-125.04c-.17578-.17578-.4375-.35156-.61328-.52344-.17578-.17578-.52344-.4375-.69922-.61328l-1.3125-1.4023h-219.8c-9.2812 0-18.184 3.6875-24.75 10.25-6.5625 6.5664-10.25 15.469-10.25 24.75v437.5c0 9.2812 3.6875 18.184 10.25 24.75 6.5664 6.5625 15.469 10.25 24.75 10.25h315c9.2812 0 18.184-3.6875 24.75-10.25 6.5625-6.5664 10.25-15.469 10.25-24.75v-342.3zm-123.64-99.051 95.203 95.203h-77.703c-4.6367-.015624-9.0781-1.8633-12.359-5.1406-3.2773-3.2812-5.125-7.7227-5.1406-12.359zm-202.82 95.762 72.059-41.598 72.047 41.598v63l54.547-31.5 72.055 41.598v83.203l-72.055 41.605-72.047-41.598v-63l-54.547 31.5-72.055-41.605zm310.36 346.9c-.015625 4.6367-1.8633 9.082-5.1406 12.359s-7.7227 5.125-12.359 5.1406h-315c-4.6367-.015625-9.082-1.8633-12.359-5.1406s-5.125-7.7227-5.1406-12.359v-135.98h120.14l23.625 27.039c1.6445 1.9062 4.0469 2.9922 6.5625 2.9766h199.68z"/><path d="m332.5 156.91-45.797-26.445-45.789 26.426 45.852 26.461z"/><path d="m295.43 251.41 45.824-26.453v-52.902l-45.824 26.496z"/><path d="m254.39815074 498.04082974h-28.422v-78.145h29.137c3.3594-.007812 6.7109.30859 10.012.94531 3.0625.55859 5.9922 1.6797 8.6445 3.3086 2.5156 1.5703 4.5898 3.7539 6.0273 6.3516 1.5977 3.0781 2.3711 6.5156 2.25 9.9844.042969 3.375-.82422 6.6992-2.5117 9.625-1.7305 2.918-4.2852 5.2578-7.3398 6.7266 3.7305 1.3945 6.9023 3.9766 9.0195 7.3516 1.7734 3.582 2.6367 7.5469 2.5117 11.539.52734 6.5781-2.3594 12.961-7.6484 16.906-6.4844 4.0195-14.066 5.9141-21.68 5.4062zm1.207-63.875h-12.918v15.75h13.336c1.1836.007813 2.3594-.14844 3.5-.46094 1.0586-.27734 2.0547-.74609 2.9414-1.3828.83984-.61719 1.5391-1.3984 2.0547-2.3008.54297-1.0234.8125-2.168.78125-3.3281.16797-2.3008-.72266-4.5547-2.418-6.125-2.082-1.5781-4.6758-2.332-7.2773-2.1172zm.375 30.039h-13.293v19.566h13.492c2.8867.20703 5.7539-.58203 8.1289-2.2305 2.0469-2.0312 3.0586-4.8789 2.75-7.7461.24219-2.6914-.71875-5.3516-2.625-7.2695-2.4805-1.6953-5.457-2.5-8.4531-2.2852z"/><path d="m357.88359839 419.965436h52.395v14.281h-35.699v15.961h26.039v14.281l-26.039.10547v19.25l36.957-.003906v14.281h-53.652z"/></g><path d="m-32 0h32v32h-32z" fill="none" stroke-width="3.09103" transform="scale(-1 1)"/></svg>