<svg height="32" viewBox="0 0 32 32" width="32" xmlns="http://www.w3.org/2000/svg"><g fill="#4d4d4d" transform="matrix(.06108374 0 0 .06108374 -5.378967 -1.103355)"><path d="m324.11 492.09c-2.3789 2.4219-5.2461 4.3086-8.4062 5.5391-3.2109 1.0977-6.5859 1.6289-9.9766 1.5664-5.0195.14844-10-.95312-14.488-3.2031-3.8828-2.0391-7.2266-4.9727-9.7578-8.5547-2.5898-3.7344-4.4648-7.918-5.5195-12.34-1.1758-4.7578-1.7617-9.6406-1.75-14.543-.015626-5.3164.57422-10.617 1.75-15.801 1.0312-4.7227 2.9414-9.2109 5.6328-13.23 2.6484-3.8477 6.2031-6.9844 10.352-9.1328 4.8945-2.4062 10.301-3.5781 15.75-3.4141 5.8047-.023437 11.504 1.5508 16.477 4.5508 2.6406 1.6367 4.9258 3.7812 6.7188 6.3164 2.1484 3.1484 3.8125 6.5977 4.9453 10.238l-15.547 4.0938c-1.2539-3.0664-3.1328-5.8359-5.5156-8.1367-2.6094-2.0352-5.8828-3.0273-9.1875-2.7812-2.8398-.14062-5.6211.87109-7.707 2.8086-1.9844 1.9492-3.5117 4.3164-4.4727 6.9297-1.0547 2.8164-1.7422 5.7578-2.0469 8.75-.28906 2.6914-.44531 5.3945-.46484 8.1016.019531 2.6719.20703 5.3398.57031 7.9883.36719 2.8203 1.1133 5.5781 2.2227 8.1992 1.0312 2.457 2.625 4.6367 4.6562 6.3594 2.1992 1.7539 4.957 2.6562 7.7695 2.5391 3.9336.16406 7.75-1.3477 10.5-4.1641 2.3125-2.3594 3.7266-5.457 3.9883-8.75h-14.34v-14.297h30.738v40.426l-12.891-.003907z"/><path d="m348.43 420h52.395v14.281h-35.699v15.961h26.039v14.281l-26.039.10547v19.25l36.957-.003906v14.281h-53.652z"/><path d="m422.03 324.51 45.824-26.461v-52.895l-45.824 26.504z"/><path d="m459.11 230-45.809-26.445-45.781 26.434 45.852 26.461z"/><path d="m404.53 275.33v-3.7617l-45.781-26.426v52.91l45.781 26.434z"/><path d="m232.14 224.95 45.781 26.426v-52.922l-45.781-26.422z"/><path d="m541.1 155.14c-.17578-.17578-.35156-.4375-.52344-.61328h-.003906c-.17578-.25391-.38281-.48828-.61328-.69922l-125.04-125.04c-.17578-.17578-.4375-.35156-.61328-.52344-.17578-.17578-.52344-.4375-.69922-.61328l-1.3125-1.4023h-219.8c-9.2812 0-18.184 3.6875-24.75 10.25-6.5625 6.5664-10.25 15.469-10.25 24.75v437.5c0 9.2812 3.6875 18.184 10.25 24.75 6.5664 6.5625 15.469 10.25 24.75 10.25h315c9.2812 0 18.184-3.6875 24.75-10.25 6.5625-6.5664 10.25-15.469 10.25-24.75v-342.3zm-123.64-99.051 95.203 95.203h-77.703c-4.6367-.015624-9.0781-1.8633-12.359-5.1406-3.2773-3.2812-5.125-7.7227-5.1406-12.359zm-202.82 95.762 72.059-41.598 72.047 41.598v63l54.547-31.5 72.055 41.598v83.203l-72.055 41.605-72.047-41.598v-63l-54.547 31.5-72.055-41.605zm310.36 346.9c-.015625 4.6367-1.8633 9.082-5.1406 12.359s-7.7227 5.125-12.359 5.1406h-315c-4.6367-.015625-9.082-1.8633-12.359-5.1406s-5.125-7.7227-5.1406-12.359v-135.98h120.14l23.625 27.039c1.6445 1.9062 4.0469 2.9922 6.5625 2.9766h199.68z"/><path d="m332.5 156.91-45.797-26.445-45.789 26.426 45.852 26.461z"/><path d="m295.43 251.41 45.824-26.453v-52.902l-45.824 26.496z"/><path d="m436.56067943 499.19777756c-5.8242-.042968-11.539-1.5977-16.582-4.5156-2.8281-1.5-5.3594-3.5078-7.4609-5.9219-2.3242-2.7969-4.2031-5.9336-5.5664-9.3008l14-6.125c.78906 1.7266 1.7031 3.3945 2.7383 4.9883.92188 1.4375 2.0508 2.7305 3.3516 3.8398 1.3047 1.0664 2.7852 1.8984 4.375 2.457 1.8086.61719 3.707.91406 5.6172.875 1.4453.007812 2.8867-.13281 4.3047-.41797 1.3164-.24609 2.582-.72656 3.7266-1.418 1.1055-.66016 2.0117-1.6016 2.625-2.7305.67188-1.3594.99219-2.8594.9375-4.375-.074219-2.7227-1.5977-5.1992-3.9883-6.5-3.3203-2.1562-6.8789-3.918-10.605-5.25-6.5195-2.2148-12.648-5.4414-18.168-9.5547-4.2617-3.707-6.5859-9.1641-6.2969-14.805-.09375-6.0117 2.625-11.723 7.3477-15.438 5.1953-4.1758 11.715-6.3477 18.375-6.125 5.8438-.082031 11.59 1.4844 16.582 4.5234 2.4844 1.4922 4.6875 3.4062 6.5117 5.6641 2.1094 2.6875 3.8438 5.6562 5.1445 8.8203l-15.426 4.7266v-.003906c-1.082-2.7305-2.707-5.2148-4.7773-7.2969-2.2422-1.9688-5.1719-2.9688-8.1484-2.7812-1.1484 0-2.2891.125-3.4102.36719-1.1016.23047-2.1641.62109-3.1523 1.1523-.94141.53125-1.7383 1.2891-2.3086 2.207-.60938 1.0312-.91406 2.2148-.875 3.4141.015624 1.0938.36328 2.1602.99609 3.0508.91406 1.1875 2.0859 2.1523 3.4219 2.8281 3.6328 2.0156 7.4414 3.7031 11.375 5.0391 5.7539 1.9297 11.145 4.8086 15.949 8.5156 5.0234 3.8086 7.8203 9.8672 7.457 16.16.37891 6.7266-2.3242 13.258-7.3398 17.754-5.9648 4.4414-13.309 6.6289-20.73 6.1758z"/><path d="m246.92687266 419.99777756h16.688v78.121h-16.688z"/></g><path d="m-32 0h32v32h-32z" fill="none" stroke-width="3.09103" transform="scale(-1 1)"/></svg>