<svg height="32" viewBox="0 0 32 32" width="32" xmlns="http://www.w3.org/2000/svg"><g fill="#4d4d4d" transform="matrix(.06108374 0 0 .06108374 -5.378967 -1.103355)"><path d="m329.52565725 450.27h25.305l.14062 14.281-25.375.10547v33.496l-16.766-.003907v-78.145h50.609v14.281h-33.914z"/><path d="m397.99832522 499.2c-5.1641.16406-10.285-.99219-14.875-3.3594-3.9375-2.1367-7.2812-5.2227-9.7227-8.9766-2.5-3.9219-4.2773-8.2617-5.25-12.812-2.1602-9.8398-2.1602-20.031 0-29.871.96875-4.5781 2.7734-8.9375 5.3203-12.863 2.4688-3.75 5.8281-6.832 9.7734-8.9766 4.5898-2.3672 9.7109-3.5234 14.875-3.3594 5.8945-.12109 11.707 1.3945 16.789 4.375 2.5977 1.5859 4.7773 3.7695 6.3633 6.3711 2.0625 3.4336 3.6367 7.1445 4.6719 11.016l-15.328 3.6758c-.96484-2.957-2.5391-5.6758-4.6211-7.9805-2.2188-2.2031-5.2773-3.3516-8.3984-3.1523-1.9219-.039062-3.8203.41406-5.5156 1.3242-1.5508.86328-2.8984 2.0547-3.9375 3.5-1.0977 1.5078-1.9805 3.1641-2.625 4.9141-.66016 1.8477-1.1641 3.7422-1.5117 5.6719-.34766 1.9062-.57422 3.832-.68359 5.7656-.10547 1.8984-.15625 3.6328-.15625 5.1797-.38672 6.5586.87891 13.113 3.6758 19.059 2.1367 4.1094 6.5078 6.5625 11.129 6.2461 1.7695.035156 3.5352-.26172 5.1953-.875 1.3906-.52734 2.6562-1.332 3.7305-2.3633 1.0938-1.0781 2.0469-2.2969 2.832-3.6211.89062-1.4922 1.6953-3.0352 2.418-4.6211l15.75 4.0938v.003906c-1.2891 3.5039-3 6.8398-5.0938 9.9297-1.7617 2.5312-3.9453 4.7383-6.457 6.5273-5.418 3.6211-11.84 5.4336-18.348 5.1797z"/><path d="m422.03 324.51 45.824-26.461v-52.895l-45.824 26.504z"/><path d="m459.11 230-45.809-26.445-45.781 26.434 45.852 26.461z"/><path d="m404.53 275.33v-3.7617l-45.781-26.426v52.91l45.781 26.434z"/><path d="m232.14 224.95 45.781 26.426v-52.922l-45.781-26.422z"/><path d="m541.1 155.14c-.17578-.17578-.35156-.4375-.52344-.61328h-.003906c-.17578-.25391-.38281-.48828-.61328-.69922l-125.04-125.04c-.17578-.17578-.4375-.35156-.61328-.52344-.17578-.17578-.52344-.4375-.69922-.61328l-1.3125-1.4023h-219.8c-9.2812 0-18.184 3.6875-24.75 10.25-6.5625 6.5664-10.25 15.469-10.25 24.75v437.5c0 9.2812 3.6875 18.184 10.25 24.75 6.5664 6.5625 15.469 10.25 24.75 10.25h315c9.2812 0 18.184-3.6875 24.75-10.25 6.5625-6.5664 10.25-15.469 10.25-24.75v-342.3zm-123.64-99.051 95.203 95.203h-77.703c-4.6367-.015624-9.0781-1.8633-12.359-5.1406-3.2773-3.2812-5.125-7.7227-5.1406-12.359zm-202.82 95.762 72.059-41.598 72.047 41.598v63l54.547-31.5 72.055 41.598v83.203l-72.055 41.605-72.047-41.598v-63l-54.547 31.5-72.055-41.605zm310.36 346.9c-.015625 4.6367-1.8633 9.082-5.1406 12.359s-7.7227 5.125-12.359 5.1406h-315c-4.6367-.015625-9.082-1.8633-12.359-5.1406s-5.125-7.7227-5.1406-12.359v-135.98h120.14l23.625 27.039c1.6445 1.9062 4.0469 2.9922 6.5625 2.9766h199.68z"/><path d="m332.5 156.91-45.797-26.445-45.789 26.426 45.852 26.461z"/><path d="m295.43 251.41 45.824-26.453v-52.902l-45.824 26.496z"/><path d="m282.14957819 420.019h16.695v78.121h-16.695z"/></g><path d="m-32 0h32v32h-32z" fill="none" stroke-width="3.09103" transform="scale(-1 1)"/></svg>